name rise30.3154peak39.0474fall46.5389.mot
datacolumns 19
datarows 14
range 17.80826700000000 17.82993500000000
endheader
time	ground_force1_vx	ground_force1_vy	ground_force1_vz	ground_force1_px	ground_force1_py	ground_force1_pz	ground_force2_vx	ground_force2_vy	ground_force2_vz	ground_force2_px	ground_force2_py	ground_force2_pz	ground_torque1_x	ground_torque1_y	ground_torque1_z	ground_torque2_x	ground_torque2_y	ground_torque2_z	
17.80826700000000	-44.45217000000000	805.31259899999998	57.09046400000000	0.18026100000000	0.00000000000000	0.13904500000000	-4.63169900000000	16.67048600000000	3.76518000000000	0.00000000000000	0.00000000000000	0.00000000000000	0.00000000000000	32.43888900000000	0.00000000000000	0.00000000000000	1.51849300000000	0.00000000000000	
17.80994000000000	-44.49017000000000	802.30060100000003	57.03514900000000	0.17965800000000	0.00000000000000	0.13897500000000	-5.85459400000000	22.31853400000000	4.87403700000000	0.00000000000000	0.00000000000000	0.00000000000000	0.00000000000000	32.30283000000000	0.00000000000000	0.00000000000000	1.97372700000000	0.00000000000000	
17.81160100000000	-44.53332700000000	799.17243199999996	56.95958300000000	0.17905400000000	0.00000000000000	0.13890100000000	-7.09669700000000	28.49307800000000	6.03878600000000	0.37712200000000	0.00000000000000	-0.06311500000000	0.00000000000000	32.16162700000000	0.00000000000000	0.00000000000000	4.28392400000000	0.00000000000000	
17.81326700000000	-44.58259500000000	795.92914499999995	56.86326900000000	0.17844900000000	0.00000000000000	0.13882300000000	-8.31210000000000	35.07231300000000	7.22513900000000	0.38535300000000	0.00000000000000	-0.06349700000000	0.00000000000000	32.01547300000000	0.00000000000000	0.00000000000000	5.20363400000000	0.00000000000000	
17.81493700000000	-44.63889200000000	792.57180500000004	56.74573500000000	0.17784200000000	0.00000000000000	0.13874100000000	-9.45588800000000	41.92653900000000	8.39837500000000	0.39250200000000	0.00000000000000	-0.06387100000000	0.00000000000000	31.86455700000000	0.00000000000000	0.00000000000000	6.13054300000000	0.00000000000000	
17.81660200000000	-44.70309700000000	789.10148300000003	56.60653700000000	0.17723200000000	0.00000000000000	0.13865400000000	-10.48740700000000	48.92891700000000	9.52592300000000	0.39874800000000	0.00000000000000	-0.06423800000000	0.00000000000000	31.70907100000000	0.00000000000000	0.00000000000000	7.03899600000000	0.00000000000000	
17.81826900000000	-44.77604600000000	785.51924699999995	56.44525500000000	0.17662000000000	0.00000000000000	0.13856300000000	-11.37294400000000	55.96505400000000	10.57954800000000	0.40423400000000	0.00000000000000	-0.06459900000000	0.00000000000000	31.54920300000000	0.00000000000000	0.00000000000000	7.90617700000000	0.00000000000000	
17.81993400000000	-44.85852600000000	781.82615699999997	56.26149900000000	0.17600400000000	0.00000000000000	0.13846800000000	-12.08752400000000	62.94042400000000	11.53693900000000	0.40907600000000	0.00000000000000	-0.06495500000000	0.00000000000000	31.38514200000000	0.00000000000000	0.00000000000000	8.71346000000000	0.00000000000000	
17.82160300000000	-44.95127000000000	778.02325900000005	56.05490800000000	0.17538400000000	0.00000000000000	0.13836800000000	-12.61577100000000	69.78509000000000	12.38258800000000	0.41336900000000	0.00000000000000	-0.06530600000000	0.00000000000000	31.21707000000000	0.00000000000000	0.00000000000000	9.44722700000000	0.00000000000000	
17.82326600000000	-45.05495700000000	774.11157700000001	55.82515300000000	0.17476000000000	0.00000000000000	0.13826400000000	-12.95184000000000	76.45566800000000	13.10798100000000	0.41719100000000	0.00000000000000	-0.06565300000000	0.00000000000000	31.04516800000000	0.00000000000000	0.00000000000000	10.09914200000000	0.00000000000000	
17.82493800000000	-45.17020500000000	770.09211000000005	55.57193500000000	0.17413200000000	0.00000000000000	0.13815500000000	-13.09859400000000	82.93477300000001	13.71117900000000	0.42060700000000	0.00000000000000	-0.06599600000000	0.00000000000000	30.86961300000000	0.00000000000000	0.00000000000000	10.66595200000000	0.00000000000000	
17.82660000000000	-45.29756800000000	765.96582400000000	55.29499000000000	0.17349800000000	0.00000000000000	0.13804100000000	-13.06619700000000	89.22841200000001	14.19593900000000	0.42367100000000	0.00000000000000	-0.06633600000000	0.00000000000000	30.69057600000000	0.00000000000000	0.00000000000000	11.14889200000000	0.00000000000000	
17.82826900000000	-45.43753100000000	761.73364900000001	54.99408700000000	0.17285900000000	0.00000000000000	0.13792300000000	-12.87035100000000	95.36190200000000	14.57051500000000	0.42643000000000	0.00000000000000	-0.06667300000000	0.00000000000000	30.50822100000000	0.00000000000000	0.00000000000000	11.55282800000000	0.00000000000000	
17.82993500000000	-45.59050900000000	757.39647400000001	54.66902900000000	0.17221400000000	0.00000000000000	0.13779900000000	-12.53038700000000	101.37489800000000	14.84629700000000	0.42892200000000	0.00000000000000	-0.06700600000000	0.00000000000000	30.32270800000000	0.00000000000000	0.00000000000000	11.88525500000000	0.00000000000000	
